<svg width="23" height="23" viewBox="0 0 23 23" fill="none" xmlns="http://www.w3.org/2000/svg">
<g opacity="0.6" clip-path="url(#clip0_0_463)">
<path d="M12.5755 1.14449C12.5755 0.646239 12.1719 0.242676 11.6737 0.242676C11.1754 0.242676 10.7719 0.646239 10.7719 1.14449V1.88173H12.5755V1.14449Z" fill="white"/>
<path d="M22.4639 4.51728C22.4639 3.77102 21.8574 3.16455 21.1112 3.16455H2.21357C1.46731 3.16455 0.86084 3.77102 0.86084 4.51728V14.4936C0.86084 15.2399 1.46731 15.8464 2.21357 15.8464H21.1112C21.8574 15.8464 22.4639 15.2399 22.4639 14.4936V4.51728Z" fill="white"/>
<path d="M20.568 18.0986C20.568 17.6251 20.205 17.2374 19.7406 17.199C19.7158 17.1968 19.691 17.1968 19.6662 17.1968H16.8254H14.7783H12.5756H10.772H8.54675H6.49737H3.6589C3.6341 17.1968 3.6093 17.199 3.5845 17.199C3.12232 17.2374 2.75708 17.6251 2.75708 18.0986C2.75708 18.5968 3.16064 19.0004 3.6589 19.0004H5.52792L4.39839 21.0971C4.16166 21.5368 4.32624 22.0824 4.76588 22.3191C4.90115 22.3912 5.0477 22.4273 5.19199 22.4273C5.51213 22.4273 5.82326 22.256 5.98784 21.9539L7.5773 19.0004H10.7742V21.5255C10.7742 22.0238 11.1778 22.4273 11.6761 22.4273C12.1743 22.4273 12.5779 22.0238 12.5779 21.5255V19.0004H15.7523L17.3417 21.9539C17.5041 22.256 17.8152 22.4273 18.1376 22.4273C18.2819 22.4273 18.4284 22.3935 18.5637 22.3191C19.0033 22.0824 19.1656 21.5368 18.9312 21.0971L17.8016 19.0004H19.6707C20.1644 19.0004 20.568 18.5946 20.568 18.0986Z" fill="white"/>
</g>
<defs>
<clipPath id="clip0_0_463">
<rect width="22.1847" height="22.1847" fill="white" transform="translate(0.570068 0.242676)"/>
</clipPath>
</defs>
</svg>
