<svg width="417" height="86" viewBox="0 0 417 86" fill="none" xmlns="http://www.w3.org/2000/svg">
<path d="M0.319824 38.1337C0.319824 25.8814 10.2523 15.949 22.5045 15.949H394.099C406.351 15.949 416.283 25.8814 416.283 38.1337V85.8308H0.319824V38.1337Z" fill="#070707"/>
<path d="M40.7449 67.3184C41.4992 67.3184 42.2867 67.3184 43.0632 67.3184C43.2407 66.4753 43.4293 65.6212 43.6067 64.7671C44.605 64.7671 45.6145 64.7671 46.6128 64.7671C46.4464 65.6212 46.2467 66.4753 46.0803 67.3184C46.8346 67.3184 47.6222 67.3184 48.3764 67.3184C48.6205 66.2202 48.8423 65.111 49.0864 64.0017C49.3304 62.8925 49.5522 61.7833 49.7963 60.6629C49.042 60.6629 48.2544 60.6629 47.5002 60.6629C47.3005 61.5171 47.1341 62.3712 46.9566 63.2253C45.9583 63.2253 44.9489 63.2253 43.9506 63.2253C44.117 62.3712 44.2945 61.5171 44.483 60.6629C43.4293 60.6629 42.3755 60.6629 41.3217 60.6629C41.7876 60.9957 41.9096 61.8387 41.7654 62.4599C41.4215 64.0794 41.0777 65.6989 40.7449 67.3184ZM50.4985 65.599C50.3099 66.5419 50.8867 67.3184 51.8517 67.3184C53.3936 67.3184 54.9021 67.3184 56.4773 67.3184C57.409 67.3184 58.363 66.5419 58.5515 65.599C58.7734 64.5342 59.0063 63.4693 59.2393 62.3934C59.45 61.4505 58.8288 60.6629 57.8971 60.6629C56.322 60.6629 54.8134 60.6629 53.2716 60.6629C52.3065 60.6629 51.397 61.4505 51.1862 62.3934C50.9533 63.4693 50.7203 64.5342 50.4985 65.599ZM53.3159 65.7876C52.9943 65.7876 52.8057 65.5325 52.8722 65.2108C53.0497 64.4011 53.2161 63.5913 53.3936 62.7816C53.4601 62.4599 53.7596 62.2048 54.0702 62.2048C54.8356 62.2048 55.612 62.2048 56.3996 62.2048C56.6991 62.2048 56.9099 62.4599 56.8433 62.7816C56.6658 63.5913 56.4883 64.4011 56.322 65.2108C56.2665 65.5214 55.9337 65.7876 55.6453 65.7876C54.8578 65.7876 54.0702 65.7876 53.3159 65.7876ZM59.9507 67.3184C60.7272 67.3184 61.4926 67.3184 62.2468 67.3184C62.4132 66.4975 62.6129 65.6656 62.7904 64.8226C63.0566 65.6656 63.345 66.4975 63.6667 67.3184C64.0327 67.3184 64.4209 67.3184 64.8425 67.3184C65.2085 67.3184 65.63 67.3184 66.0404 67.3184C66.6505 66.4975 67.3161 65.6656 67.9705 64.8226C67.8041 65.6656 67.6045 66.4975 67.4381 67.3184C68.1923 67.3184 68.9799 67.3184 69.7342 67.3184C69.9782 66.2202 70.2001 65.111 70.4441 64.0017C70.6881 62.8925 70.91 61.7833 71.154 60.6629C70.3997 60.6629 69.6122 60.6629 68.8579 60.6629C67.6599 62.1937 66.4619 63.7244 65.2861 65.2441C64.7426 63.7244 64.2102 62.1937 63.6667 60.6629C62.6129 60.6629 61.5591 60.6629 60.5053 60.6629C61.0267 60.9957 61.1154 61.8387 60.9712 62.4599C60.6274 64.0794 60.2835 65.6989 59.9507 67.3184ZM74.6444 63.2253C74.722 62.8814 74.7886 62.5486 74.8662 62.2048C76.5301 62.2048 78.2161 62.2048 79.9022 62.2048C80.0242 61.6945 80.124 61.1843 80.246 60.6629C77.5062 60.6629 74.7664 60.6629 72.0488 60.6629C72.5368 60.9957 72.6367 61.8387 72.5146 62.4599C72.2928 63.5026 72.0709 64.5453 71.8491 65.599C71.6605 66.5419 72.2484 67.3184 73.2024 67.3184C75.0881 67.3184 76.9405 67.3184 78.8262 67.3184C78.926 66.8081 79.048 66.2979 79.1479 65.7876C77.6282 65.7876 76.164 65.7876 74.6666 65.7876C74.3782 65.7876 74.1563 65.5325 74.2229 65.2108C74.2561 65.0666 74.3005 64.9113 74.3227 64.7671C75.798 64.7671 77.2844 64.7671 78.7818 64.7671C78.8817 64.2569 79.0037 63.7355 79.1035 63.2253C77.606 63.2253 76.1086 63.2253 74.6444 63.2253Z" fill="white"/>
<path d="M29.1602 15.9487H89.0589V21.4949C89.0589 38.0355 75.6501 51.4443 59.1095 51.4443V51.4443C42.5689 51.4443 29.1602 38.0355 29.1602 21.4949V15.9487Z" fill="#FEF9F1"/>
<path fill-rule="evenodd" clip-rule="evenodd" d="M29.1603 15.9487H20.2864C25.1873 15.9487 29.1603 19.9217 29.1603 24.8226V15.9487Z" fill="#FEF9F1"/>
<path fill-rule="evenodd" clip-rule="evenodd" d="M89.059 15.9487H97.9329C93.0319 15.9487 89.059 19.9217 89.059 24.8226V15.9487Z" fill="#FEF9F1"/>
<circle cx="59.1094" cy="22.6042" r="22.1847" fill="black"/>
<path d="M56.9683 12.4216L49.2813 18.5778C48.4161 19.2656 47.8614 20.7187 48.05 21.8057L49.5253 30.6352C49.7915 32.2104 51.3001 33.486 52.8974 33.486H65.3208C66.907 33.486 68.4267 32.1993 68.6929 30.6352L70.1682 21.8057C70.3456 20.7187 69.791 19.2656 68.9369 18.5778L61.2499 12.4327C60.063 11.4787 58.1441 11.4787 56.9683 12.4216Z" fill="#F8C06D" stroke="black" stroke-width="1.10924" stroke-linecap="round" stroke-linejoin="round"/>
<path d="M59.1091 29.2596V25.9319" stroke="black" stroke-width="2.21847" stroke-linecap="round" stroke-linejoin="round"/>
<g opacity="0.6" clip-path="url(#clip0_0_441)">
<path d="M166.391 54.2985C166.391 54.7356 166.745 55.0899 167.182 55.0899V55.0899C167.619 55.0899 167.974 54.7356 167.974 54.2985V46.3853C167.974 45.9482 167.619 45.5939 167.182 45.5939V45.5939C166.745 45.5939 166.391 45.9482 166.391 46.3853V54.2985Z" fill="#FEF9F1"/>
<path d="M168.771 53.5082C168.771 53.9446 169.125 54.2984 169.562 54.2984V54.2984C169.998 54.2984 170.352 53.9446 170.352 53.5082V47.1724C170.352 46.7359 169.998 46.3821 169.562 46.3821V46.3821C169.125 46.3821 168.771 46.7359 168.771 47.1724V53.5082Z" fill="#FEF9F1"/>
<path d="M149.75 53.5085C149.75 53.9448 150.103 54.2984 150.54 54.2984V54.2984C150.976 54.2984 151.33 53.9448 151.33 53.5085V47.172C151.33 46.7358 150.976 46.3821 150.54 46.3821V46.3821C150.103 46.3821 149.75 46.7358 149.75 47.172V53.5085Z" fill="#FEF9F1"/>
<path d="M152.127 54.2981C152.127 54.7354 152.481 55.0899 152.919 55.0899V55.0899C153.356 55.0899 153.711 54.7354 153.711 54.2981V46.3857C153.711 45.9484 153.356 45.5939 152.919 45.5939V45.5939C152.481 45.5939 152.127 45.9484 152.127 46.3857V54.2981Z" fill="#FEF9F1"/>
<path d="M154.502 49.9467L154.51 49.946H165.59V50.737H154.51H154.502V49.9467Z" fill="#FEF9F1"/>
</g>
<g opacity="0.6" clip-path="url(#clip1_0_441)">
<path d="M258.575 40.1445C258.575 39.6462 258.172 39.2427 257.674 39.2427C257.175 39.2427 256.772 39.6462 256.772 40.1445V40.8817H258.575V40.1445Z" fill="white"/>
<path d="M268.464 43.5173C268.464 42.771 267.857 42.1646 267.111 42.1646H248.214C247.467 42.1646 246.861 42.771 246.861 43.5173V53.4936C246.861 54.2399 247.467 54.8464 248.214 54.8464H267.111C267.857 54.8464 268.464 54.2399 268.464 53.4936V43.5173Z" fill="white"/>
<path d="M266.568 57.0986C266.568 56.6251 266.205 56.2374 265.741 56.199C265.716 56.1968 265.691 56.1968 265.666 56.1968H262.825H260.778H258.576H256.772H254.547H252.497H249.659C249.634 56.1968 249.609 56.199 249.584 56.199C249.122 56.2374 248.757 56.6251 248.757 57.0986C248.757 57.5968 249.161 58.0004 249.659 58.0004H251.528L250.398 60.0971C250.162 60.5368 250.326 61.0824 250.766 61.3191C250.901 61.3912 251.048 61.4273 251.192 61.4273C251.512 61.4273 251.823 61.256 251.988 60.9539L253.577 58.0004H256.774V60.5255C256.774 61.0238 257.178 61.4273 257.676 61.4273C258.174 61.4273 258.578 61.0238 258.578 60.5255V58.0004H261.752L263.342 60.9539C263.504 61.256 263.815 61.4273 264.138 61.4273C264.282 61.4273 264.428 61.3935 264.564 61.3191C265.003 61.0824 265.166 60.5368 264.931 60.0971L263.802 58.0004H265.671C266.164 58.0004 266.568 57.5946 266.568 57.0986Z" fill="white"/>
</g>
<g opacity="0.6" clip-path="url(#clip2_0_441)">
<path d="M351.376 53.5847H363.118C363.409 53.5847 363.664 53.3924 363.743 53.1132L366.343 44.0138C366.399 43.8176 366.36 43.6069 366.237 43.4439C366.114 43.2814 365.923 43.1855 365.718 43.1855H349.875L349.411 41.0948C349.345 40.7971 349.081 40.5857 348.776 40.5857H344.833C344.474 40.5857 344.183 40.8765 344.183 41.2356C344.183 41.595 344.474 41.8856 344.833 41.8856H348.254L350.601 52.4472C349.911 52.7474 349.426 53.4348 349.426 54.2347C349.426 55.3098 350.301 56.1845 351.376 56.1845H363.118C363.478 56.1845 363.768 55.8939 363.768 55.5346C363.768 55.1754 363.478 54.8846 363.118 54.8846H351.376C351.018 54.8846 350.726 54.5933 350.726 54.2347C350.726 53.876 351.018 53.5847 351.376 53.5847V53.5847Z" fill="white"/>
<path d="M350.726 58.1344C350.726 59.2097 351.601 60.0842 352.676 60.0842C353.751 60.0842 354.626 59.2097 354.626 58.1344C354.626 57.0593 353.751 56.1846 352.676 56.1846C351.601 56.1846 350.726 57.0593 350.726 58.1344Z" fill="white"/>
<path d="M359.868 58.1344C359.868 59.2097 360.743 60.0842 361.818 60.0842C362.894 60.0842 363.768 59.2097 363.768 58.1344C363.768 57.0593 362.894 56.1846 361.818 56.1846C360.743 56.1846 359.868 57.0593 359.868 58.1344Z" fill="white"/>
</g>
<defs>
<clipPath id="clip0_0_441">
<rect width="22.1847" height="22.1847" fill="white" transform="translate(148.958 39.2427)"/>
</clipPath>
<clipPath id="clip1_0_441">
<rect width="22.1847" height="22.1847" fill="white" transform="translate(246.57 39.2427)"/>
</clipPath>
<clipPath id="clip2_0_441">
<rect width="22.1847" height="22.1847" fill="white" transform="translate(344.183 39.2427)"/>
</clipPath>
</defs>
</svg>
