<svg width="23" height="23" viewBox="0 0 23 23" fill="none" xmlns="http://www.w3.org/2000/svg">
<g opacity="0.6" clip-path="url(#clip0_0_468)">
<path d="M7.37581 14.5847H19.1183C19.4091 14.5847 19.6641 14.3924 19.7428 14.1132L22.3428 5.0138C22.3986 4.81764 22.3604 4.60691 22.2373 4.44392C22.1141 4.28143 21.9225 4.18547 21.7181 4.18547H5.87535L5.41075 2.09482C5.34474 1.79709 5.0807 1.58569 4.77604 1.58569H0.833049C0.473887 1.58569 0.183105 1.87648 0.183105 2.23564C0.183105 2.59497 0.473887 2.88558 0.833049 2.88558H4.25439L6.60146 13.4472C5.9109 13.7474 5.42598 14.4348 5.42598 15.2347C5.42598 16.3098 6.30069 17.1845 7.37581 17.1845H19.1183C19.4776 17.1845 19.7682 16.8939 19.7682 16.5346C19.7682 16.1754 19.4776 15.8846 19.1183 15.8846H7.37581C7.01783 15.8846 6.72587 15.5933 6.72587 15.2347C6.72587 14.876 7.01783 14.5847 7.37581 14.5847V14.5847Z" fill="white"/>
<path d="M6.72595 19.1344C6.72595 20.2097 7.60067 21.0842 8.67595 21.0842C9.75106 21.0842 10.6258 20.2097 10.6258 19.1344C10.6258 18.0593 9.75106 17.1846 8.67595 17.1846C7.60067 17.1846 6.72595 18.0593 6.72595 19.1344Z" fill="white"/>
<path d="M15.8684 19.1344C15.8684 20.2097 16.7431 21.0842 17.8182 21.0842C18.8935 21.0842 19.7681 20.2097 19.7681 19.1344C19.7681 18.0593 18.8935 17.1846 17.8182 17.1846C16.7431 17.1846 15.8684 18.0593 15.8684 19.1344Z" fill="white"/>
</g>
<defs>
<clipPath id="clip0_0_468">
<rect width="22.1847" height="22.1847" fill="white" transform="translate(0.182983 0.242676)"/>
</clipPath>
</defs>
</svg>
