<svg width="24" height="23" viewBox="0 0 24 23" fill="none" xmlns="http://www.w3.org/2000/svg">
<g opacity="0.6" clip-path="url(#clip0_0_461)">
<path d="M18.3908 15.2985C18.3908 15.7356 18.7451 16.0899 19.1822 16.0899V16.0899C19.6193 16.0899 19.9736 15.7356 19.9736 15.2985V7.38529C19.9736 6.94822 19.6193 6.59391 19.1822 6.59391V6.59391C18.7451 6.59391 18.3908 6.94822 18.3908 7.38528V15.2985Z" fill="#FEF9F1"/>
<path d="M20.7714 14.5082C20.7714 14.9446 21.1252 15.2984 21.5616 15.2984V15.2984C21.998 15.2984 22.3518 14.9446 22.3518 14.5082V8.17235C22.3518 7.73593 21.998 7.38215 21.5616 7.38215V7.38215C21.1252 7.38215 20.7714 7.73593 20.7714 8.17235V14.5082Z" fill="#FEF9F1"/>
<path d="M1.74977 14.5085C1.74977 14.9448 2.10341 15.2984 2.53966 15.2984V15.2984C2.9759 15.2984 3.32955 14.9448 3.32955 14.5085V8.17204C3.32955 7.73579 2.9759 7.38215 2.53966 7.38215V7.38215C2.10341 7.38215 1.74977 7.73579 1.74977 8.17204V14.5085Z" fill="#FEF9F1"/>
<path d="M4.12694 15.2981C4.12694 15.7354 4.48144 16.0899 4.91874 16.0899V16.0899C5.35604 16.0899 5.71054 15.7354 5.71054 15.2981V7.38571C5.71054 6.94841 5.35604 6.59391 4.91874 6.59391V6.59391C4.48144 6.59391 4.12694 6.94841 4.12694 7.38571V15.2981Z" fill="#FEF9F1"/>
<path d="M6.50183 10.9467L6.51028 10.946H17.5902V11.737H6.51028H6.50183V10.9467Z" fill="#FEF9F1"/>
</g>
<defs>
<clipPath id="clip0_0_461">
<rect width="22.1847" height="22.1847" fill="white" transform="translate(0.95752 0.242676)"/>
</clipPath>
</defs>
</svg>
