<svg width="19" height="19" viewBox="0 0 19 19" fill="none" xmlns="http://www.w3.org/2000/svg">
<path d="M16.1908 10.9889C15.9853 8.39139 14.7393 6.76365 13.64 5.32725C12.6222 3.99746 11.7431 2.84911 11.7431 1.15514C11.7431 1.01907 11.6646 0.894707 11.5401 0.832354C11.4152 0.769627 11.2652 0.7799 11.1516 0.859976C9.50075 2.00655 8.1233 3.93902 7.64213 5.78287C7.30809 7.06657 7.26389 8.5097 7.25769 9.46282C5.73311 9.14677 5.38775 6.93336 5.38411 6.90924C5.36694 6.79443 5.29467 6.69452 5.18952 6.63996C5.08329 6.58611 4.95842 6.5822 4.85072 6.63394C4.77077 6.67149 2.88839 7.59982 2.77887 11.3063C2.77119 11.4296 2.77084 11.5533 2.77084 11.677C2.77084 15.2779 5.78968 18.2078 9.50001 18.2078C9.50513 18.2081 9.51059 18.2088 9.51498 18.2078C9.51645 18.2078 9.51789 18.2078 9.51971 18.2078C13.2209 18.1975 16.2292 15.2715 16.2292 11.677C16.2292 11.4959 16.1908 10.9889 16.1908 10.9889ZM9.50001 17.4821C8.26311 17.4821 7.25695 16.4419 7.25695 15.1631C7.25695 15.1196 7.2566 15.0756 7.25986 15.0218C7.27483 14.4825 7.38036 14.1144 7.49609 13.8695C7.71296 14.3216 8.10066 14.7372 8.73043 14.7372C8.93707 14.7372 9.10429 14.5749 9.10429 14.3744C9.10429 13.8578 9.11526 13.2619 9.24777 12.724C9.36571 12.2471 9.64753 11.7397 10.0046 11.3329C10.1634 11.8609 10.473 12.2882 10.7753 12.7052C11.2079 13.3019 11.6551 13.9188 11.7336 14.9707C11.7384 15.0331 11.7431 15.0958 11.7431 15.1631C11.7431 16.4418 10.7369 17.4821 9.50001 17.4821Z" fill="white"/>
</svg>
