<svg width="17" height="17" viewBox="0 0 17 17" fill="none" xmlns="http://www.w3.org/2000/svg">
<path fill-rule="evenodd" clip-rule="evenodd" d="M0.583344 8.50458C0.583344 4.13494 4.13667 0.583328 8.50001 0.583328C12.8633 0.583328 16.4167 4.13494 16.4167 8.50458C16.4167 12.865 12.8633 16.4167 8.50001 16.4167C4.13667 16.4167 0.583344 12.865 0.583344 8.50458ZM11.4038 9.30579C11.4879 9.22178 11.5948 9.09193 11.6178 9.06138C11.74 8.90098 11.8012 8.7024 11.8012 8.50458C11.8012 8.28232 11.7324 8.07609 11.6025 7.90806C11.5918 7.89742 11.571 7.87473 11.5438 7.84516C11.493 7.78983 11.42 7.71042 11.3503 7.64073C10.7237 6.9686 9.08841 5.86874 8.23256 5.53268C8.10265 5.47998 7.77406 5.36464 7.59831 5.35701C7.43019 5.35701 7.26972 5.3952 7.11689 5.47157C6.92585 5.5785 6.77302 5.74654 6.68896 5.94512C6.63547 6.0826 6.55141 6.49505 6.55141 6.50269C6.46735 6.95332 6.4215 7.68656 6.4215 8.49618C6.4215 9.26837 6.46735 9.97029 6.53613 10.4286C6.53802 10.4305 6.54459 10.4632 6.5548 10.5141C6.58585 10.6689 6.65052 10.9914 6.71952 11.1236C6.88764 11.4444 7.21623 11.643 7.56774 11.643H7.59831C7.82755 11.6353 8.30897 11.4368 8.30897 11.4291C9.11898 11.0931 10.7161 10.0467 11.358 9.35162L11.4038 9.30579Z" fill="white"/>
</svg>
