<svg width="36" height="37" viewBox="0 0 36 37" fill="none" xmlns="http://www.w3.org/2000/svg">
<rect x="0.024292" y="0.660645" width="35.4956" height="35.4956" rx="17.7478" fill="#FEF9F1"/>
<path d="M23.2967 12.7542C22.763 12.1715 21.9331 11.3849 21.5801 13.1607C21.4601 13.7647 21.1796 14.2301 20.9392 14.6049C20.68 13.2936 19.9007 11.9364 19.1662 11.0214C18.8914 10.679 17.9161 9.31794 17.7286 7.04106C17.7006 6.70112 17.2969 6.54183 17.0446 6.7708C14.632 8.96112 13.3074 11.9736 13.2584 15.3647C13.2584 15.3647 12.2536 14.5178 11.7079 12.9424C11.5608 12.518 10.9921 12.437 10.7455 12.8124C10.6981 12.8844 10.6543 12.9566 10.6148 13.0266C8.75329 16.3183 7.85773 20.3154 8.68559 24.0343C10.5708 32.5159 26.0232 32.2588 26.971 22.7702C27.2857 19.6058 26.0677 15.7779 23.2967 12.7542Z" fill="#F8C06D"/>
<path d="M12.2734 25.7173C11.4455 22.3906 12.3411 18.815 14.2026 15.8706C14.2421 15.8079 14.2861 15.7435 14.3334 15.679C14.5801 15.3434 15.1488 15.4157 15.2957 15.7952C15.8415 17.2045 16.8462 17.9622 16.8462 17.9622C16.8866 15.4696 17.7895 13.2069 19.4479 11.3921C19.0771 10.8785 17.9425 9.64011 17.7286 7.04106C17.7006 6.70112 17.2969 6.54183 17.0446 6.7708C14.632 8.96112 13.3074 11.9736 13.2584 15.3647C13.2584 15.3647 12.2536 14.5178 11.7079 12.9426C11.561 12.5182 10.9921 12.4372 10.7455 12.8126C10.6981 12.8846 10.6543 12.9568 10.6148 13.0268C8.7533 16.3183 7.85773 20.3155 8.68559 24.0344C9.45168 27.4815 12.599 29.5531 16.0785 30.053C14.2015 29.1312 12.759 27.6716 12.2734 25.7173Z" fill="#FF4C01"/>
</svg>
